<svg width="65" height="65" viewBox="0 0 512 512" fill="none" xmlns="http://www.w3.org/2000/svg">
<g clip-path="url(#clip0_1064_20)">
<path d="M188.3 1.99989C180.6 5.09989 176.2 9.69989 161.2 30.4999C153.7 40.8999 146.1 50.3999 144.3 51.5999C142.5 52.7999 137.1 54.8999 132.3 56.3999C93.5 68.2999 92.5 68.6999 86.6 74.0999C83.3 77.0999 80 81.3999 78.3 84.7999C75.6 90.3999 75.5 90.7999 74.7 117.5C74.2 133.6 73.4 145.7 72.7 147.5C72.1 149.1 65 159.3 56.9 170.1C48.8 181 41.4 192 40.4 194.7C38 200.9 37.9 211.8 40.3 218.5C41.3 221.3 48.3 232.4 56 243.5C63.7 254.5 70.5 264.9 71 266.6C71.7 268.5 72 280.1 71.9 296.2C71.8 321.4 71.9 322.9 73.9 327.6C80 341.3 84.8 344.6 112.1 353.9C135.1 361.6 139.9 363.8 142.8 367.5L144.9 370.1L139.4 379.5C133.1 390.5 132.4 394.6 136.6 397.9C141.8 402 146.9 399.6 151.6 391C153.1 388.2 154.6 386 155 386C155.3 386 159.1 391.1 163.3 397.4C171.8 410 177.3 414.7 186.9 417.4C196.1 420.1 202.1 419.5 216.3 414.5C228.1 410.4 228.9 410.3 227.9 412.3C227 414 187.8 482 185.2 486.4C184.9 486.9 180.2 478.5 174.8 467.6C167.7 453.4 164.3 447.7 162.7 447.1C161.5 446.6 152.1 446.8 141 447.6C130.3 448.3 120.7 448.9 119.8 449C118.5 449 119.8 446 125.5 436.1C134 421.5 134.9 417.6 130.4 414.1C126.8 411.2 123.4 411.5 120.1 414.7C117 417.9 96.5 453.3 95.5 457.2C94.7 460.3 96.2 463.5 99.1 465C100.6 465.9 108.1 465.7 127.6 464.4C142.1 463.5 154.2 462.9 154.4 463.1C154.6 463.3 159.8 473.6 166 486C172.2 498.4 177.9 509.3 178.8 510.2C180.4 512.1 186.5 512.6 188.9 511.1C189.6 510.6 204.1 486.2 221 456.9C242.9 418.9 252.4 403.4 253.7 403.2C259.1 402.4 259.8 403.4 290.5 456.7C306.9 485.2 321 509.3 321.8 510.2C323.9 512.7 331.1 512.6 333.3 510.2C334.2 509.2 339.9 498.2 346 485.7C356.8 463.4 357 463 360.1 463C361.7 463 373.7 463.7 386.5 464.6C414 466.4 415.3 466.2 415.8 459.5C416 456 414.7 453.1 404.9 436C398.8 425.3 393 415.7 392.1 414.8C389.2 411.7 384.7 411.5 381.5 414.3C376.9 418.2 377.6 421.6 385.9 435.8C389.9 442.6 393 448.3 392.7 448.6C392.5 448.8 383.1 448.4 371.9 447.6C356.5 446.6 350.9 446.5 349 447.4C347.1 448.2 344.1 453.3 337 467.2C331.8 477.6 327.2 485.9 326.7 485.7C325.9 485.5 284.9 414.8 285.3 414.3C285.5 414.2 288.7 415.2 292.5 416.6C301.9 420.1 313 420.8 320.1 418.6C328.9 415.8 334.2 411.1 345.1 396.4C356.4 381.1 354.8 381.5 360.9 392.3C364.4 398.4 366.3 400 370.5 400C374 400 378 395.8 378 392.3C378 390.7 375.5 385.1 372.1 379.2L366.1 369L368.5 367.4C369.9 366.5 381.5 362.6 394.4 358.6C420.3 350.5 425 348.1 430.8 339.6C436 331.9 436.8 327.1 437.5 299.5C438 282.4 438.6 273.6 439.5 271.5C440.2 269.9 447.4 259.7 455.4 249C471.7 227.2 473.5 223.6 473.4 212C473.4 201.9 471.4 197.9 455.2 174.9C448 164.7 441.6 155.1 441 153.5C440.3 151.7 440 140.9 440.1 124.1C440.2 93.9999 439.6 90.4999 432.3 82.0999C426.7 75.4999 422.7 73.4999 398 64.9999C385.5 60.6999 374 56.3999 372.6 55.4999C371.2 54.5999 364.1 45.0999 356.9 34.3999C349.7 23.7999 342 13.2999 339.8 11.0999C333.7 5.09989 325.9 1.69989 316.9 1.19989C309.5 0.799895 308.5 0.999895 286 8.49989C273.2 12.7999 261.1 16.2999 259.1 16.2999C257.1 16.2999 245.6 12.6999 233.5 8.39989C213 1.09989 210.9 0.499895 202.5 0.299895C195.4 0.0998947 192.4 0.399895 188.3 1.99989ZM227.5 23.4999C254.4 32.7999 252.3 32.2999 259.9 32.1999C265.3 32.0999 270.5 30.6999 289 24.4999C323.7 12.8999 322.3 12.3999 342.7 42.4999C356.5 62.8999 360.3 67.4999 366.4 70.6999C368.1 71.4999 379 75.5999 390.7 79.5999C402.4 83.5999 413.3 87.5999 415 88.4999C418.4 90.2999 422.6 95.3999 423.5 99.1999C423.9 100.6 424.2 114.1 424.3 129.2C424.5 154.9 424.6 156.8 426.7 161.2C427.9 163.8 434.8 174.3 442.1 184.7C454.8 202.6 457.9 208.1 457.9 212.5C457.9 217.2 454.5 223 441.2 240.7C433.5 251.1 426.2 261.5 424.9 264C422.7 268.2 422.5 270.3 421.6 297.1L420.5 325.6L417.8 329.8C416.2 332.1 413.5 334.7 411.8 335.6C410 336.6 398 340.6 385.3 344.5C371.5 348.8 360.3 352.8 357.9 354.4C355.3 356.2 349.3 363.3 340.4 375.3C333 385.3 325.8 395 324.4 396.9C321.3 400.8 314.9 403.9 309.9 404C307.8 404 296.8 400.5 283.9 395.8C262.7 388.1 261 387.7 253 387.6C244.8 387.5 243.6 387.8 222.2 395.4C197.4 404.1 193.4 404.6 186.7 400C184.6 398.5 178.2 390.2 170.4 378.6C155.8 357.1 152.4 352.9 146.6 349.5C144.3 348.2 133.1 343.9 121.5 340C110 336 99.3 332.2 97.9 331.4C94.5 329.7 89.2 323.6 88.4 320.6C88.1 319.3 87.8 305.7 87.7 290.4C87.5 257.3 88.9 261.8 70.1 235.1C57.8 217.8 54.1 211.3 54 207.5C54 202.3 57 197 70.6 179C78.7 168.3 86.2 157.5 87.3 155C89.2 151 89.5 147.2 90.5 122.5C91.7 91.9999 91.9 90.7999 98 85.5999C100 83.9999 106.4 81.3999 115.8 78.3999C152.5 66.9999 153.3 66.5999 159.6 59.8999C161.3 57.9999 168.4 48.4999 175.4 38.7999C182.4 28.9999 189.4 20.1999 190.9 18.9999C194.3 16.5999 200.5 15.0999 204 15.6999C205.4 15.9999 216 19.4999 227.5 23.4999Z" fill="#D61031"/>
<path d="M233.8 48.4998C197.2 53.6998 164.3 70.8998 138 98.6998C97.5999 141.2 83.4999 199.8 100.1 256.2C103.9 269.4 115.1 291.8 123.7 304C132.4 316.2 150 333.7 161.8 342C199.2 368.3 244.7 378.2 287.7 369.4C329.5 361 367.5 335.2 391.6 299C423.9 250.4 427.6 189.1 401.4 136.5C398.4 130.4 393.1 121.4 389.5 116.5C381.3 104.9 369.5 92.1998 366.4 91.3998C360.7 89.9998 354.9 95.7998 356.6 101.2C357 102.5 360.4 106.9 364.2 111C382.6 130.9 395.2 156.5 400.7 184.5C403.3 198.1 403 223.2 400.1 237C397.1 251 393.9 260.4 388 272.5C375.9 297.3 358.5 317.1 334.8 332.7C295.5 358.6 246.4 363.7 202.6 346.4C190 341.4 182.8 337.4 167.6 326.8C167.1 326.5 167.6 325 168.9 323.5C170.7 321.2 171 319.4 171 312.4V304L175.8 304.7C185 305.9 194.6 308.9 200.4 312.4C203.6 314.3 208.1 316.2 210.4 316.5C212.6 316.8 239.3 317 269.5 316.8L324.5 316.5L329 313.8C338 308.5 342.1 301.8 342.1 292.5C342.1 289.6 341.5 285.7 340.7 283.9C339.3 280.5 339.4 280.3 342.7 276.5C348.8 269.5 350.5 257.7 346.6 249.9C345.3 247.4 345.4 246.9 347.2 245.3C353.1 240.1 355.8 226.3 352.5 218.3C351 214.8 351 214.6 353.4 212.1C361.9 203.3 361.1 186 351.9 177.3C345.6 171.3 343.4 171 306 171H272.3L273.8 164.7C276.4 154.5 276 130.1 273.1 117C270 102.7 267.5 96.6998 263.5 93.1998C258.8 88.9998 254 87.6998 245.8 88.1998C233.1 89.1998 226 96.9998 226 110.1C226 131.1 218.9 141.7 193.2 159.1C185.6 164.2 177.9 169.6 175.9 171.2C173.9 172.7 171.9 174 171.6 174C171.3 174 171 171.1 171 167.6C171 162.7 170.5 160.7 168.9 158.6L166.9 156H143.4C128.2 156 120 155.6 120 155C120 153 129.3 135.5 134 128.5C156 96.0998 190.8 73.1998 229.7 65.2998C242.2 62.7998 271.2 62.7998 283 65.3998C300.8 69.1998 316.4 75.2998 333.7 85.0998C337 86.9998 338.3 87.2998 340.6 86.4998C344.6 85.0998 347.4 80.7998 346.6 77.4998C345.6 73.3998 341.9 70.6998 328.7 64.1998C314.8 57.2998 302 52.8998 287.5 49.9998C274.3 47.2998 247.3 46.4998 233.8 48.4998ZM252.3 104.8C255.6 108.4 260 130.7 260 143.4C260 151.3 257.7 164.6 255 172.5C253.8 176.1 253.2 179.6 253.6 181.3C254.8 186.8 256.1 187 299 187H338.2L341.1 189.9C344.2 193 344.7 195.8 342.9 199.2C341 202.7 335.9 204 323.8 204C309.9 204 308 204.9 308 211.4C308 218.2 310 219.4 322.8 219.8C331.9 220.1 333.8 220.5 335.8 222.3C338.9 225.1 338.8 230.3 335.5 233.5C333.3 235.8 332.4 236 323.2 236C314.7 236 312.9 236.3 310.6 238.1C307.2 240.8 306.9 246.9 310.2 250C312 251.6 313.7 252 319.8 252C326.6 252 327.4 252.2 330.1 254.9C333.7 258.5 333.8 261.9 330.6 265.7C328.3 268.4 327.8 268.5 317.1 268.8C306.6 269.2 305.9 269.3 304 271.7C301.7 274.6 301.5 276.8 303.1 280.4C304.5 283.5 308.7 285 315.7 285C320.1 285 321.5 285.5 323.5 287.5C327.5 291.4 326.7 297.1 321.9 299.5C319.6 300.8 310.7 301 266.3 301C215.1 301 213.4 300.9 210 299C199.9 293.1 191.5 290.5 175.8 288.5L171 287.9V242V196.2L176.3 191.5C179.1 189 188.2 182.3 196.5 176.7C216.7 162.9 224.3 156.7 229.6 149.6C237.9 138.6 240.6 131.1 241.6 116.2C242.2 108.9 242.7 106.3 244.2 104.8C246.5 102.5 250.2 102.5 252.3 104.8ZM155 241V310L151.8 309.9C149 309.9 147.7 308.9 143.4 303.7C127.5 284.5 116.4 260.8 111.4 235.5C108.1 219 109.2 188.4 113.6 173.7C114.1 172.2 116 172 134.6 172H155V241Z" fill="#D61031"/>
<path d="M126.2 204.3C122 208.7 124.2 216.2 129.9 217.5C137.9 219.2 143.2 210.1 137.5 204.5C134.3 201.2 129.2 201.1 126.2 204.3Z" fill="#D61031"/>
</g>
<defs>
<clipPath id="clip0_1064_20">
<rect width="512" height="512" fill="white"/>
</clipPath>
</defs>
</svg>
