<svg width="65" height="65" viewBox="0 0 512 512" fill="none" xmlns="http://www.w3.org/2000/svg">
<path d="M246 42.1C225.4 44.8 208.1 58 201 76.7C197.9 84.7 197.2 100.8 199.4 110.5C202.9 125.2 213.7 142.3 224.6 150.2C230.8 154.7 235.1 156.9 242 159.1C245.1 160.1 246.8 161 246 161.3C245.2 161.6 238.8 162.1 231.9 162.4C206.4 163.6 193.8 166.2 182.2 172.6C164.7 182.4 153.6 196.9 148 217.3C146.9 221.3 145.1 234.3 144 246.8C142.9 259 140.8 278.4 139.4 289.8C135.7 320.5 135.4 325.4 137.4 328.4C140.6 333.3 149 332.6 151.9 327.2C153.1 325 159.2 274 161.5 248C163.3 228 164.8 221.3 169.6 211.5C176.1 198.2 187.8 187.9 200.9 184C220.6 178.2 277.4 177.4 302.9 182.6C313.4 184.8 323.2 190 330.6 197.4C340.6 207.4 346 220.6 347.5 239C348.5 251.4 351.7 279.3 355.1 304.5C357.7 324.5 358.2 326.7 360.5 328.9C365.5 334 375 330.4 375 323.5C375 322.2 373.4 309.1 371.5 294.4C369.6 279.7 367.1 258.6 366 247.4C363.7 224.5 361.7 215.5 356.6 204.9C349.1 189.3 338.3 178.2 323.5 171C313.4 166.2 305.1 164.3 286.9 163C279 162.4 270 161.6 267 161.3L261.5 160.8L266.9 159.4C287.2 154.1 304.7 134.5 310.5 110.3C312.9 100.5 312.2 84.9 309.1 76.8C299.7 52.3 274.3 38.3 246 42.1ZM268.1 61C281.5 65.1 290.3 74.2 293.6 87C299.4 109.6 281.4 138.7 259.1 143C240.7 146.5 219.7 126.3 215.8 101.6C212.2 78.3 229.6 59.2 254.6 59.1C259.1 59 264.2 59.7 268.1 61Z" fill="#D61031"/>
<path d="M190 234C188.9 235.1 187.8 237 187.5 238.2C187.3 239.5 185.7 259.4 184.1 282.5C181.8 315.6 181.4 325 182.3 327C184 330.5 188.5 332.4 192.3 331.4C198.6 329.5 198.6 329.5 201.8 282.6C204.9 238 204.8 235 201 233C197.8 231.3 192.2 231.8 190 234Z" fill="#D61031"/>
<path d="M307.5 234.5C306.1 235.8 305 237.7 305 238.7C305 239.7 306.4 259.6 308 283C311.3 329.1 311.3 329.3 317.3 331.4C321.1 332.8 326.7 330 327.7 326.3C328 324.8 327 304.1 325.4 280.3C322.5 238.1 322.4 237 320 234.5C316.8 231.1 310.9 231 307.5 234.5Z" fill="#D61031"/>
<path d="M252 291.2C250.1 292.2 246.3 299 236.8 318C229.9 332 224 343.8 223.8 344.1C223.7 344.5 210.7 346.6 195 348.9C162.8 353.6 162 353.9 162 361.4C162 365.4 162.4 365.9 182.9 386L203.9 406.5L198.9 434.5C193.5 465.3 193.5 466.7 199.2 469.6C200.9 470.5 203.3 470.9 204.6 470.6C205.9 470.3 218 464.2 231.5 457L256 444.1L280.3 456.9C293.6 463.9 305.5 469.9 306.8 470.3C310.6 471.2 315.1 469.1 316.5 465.6C317.7 462.9 317.3 459.4 313.4 436.5C311 422.2 308.8 409.6 308.5 408.5C308.1 406.9 312.3 402.3 329 386C349.6 365.9 350 365.4 350 361.4C350 353.8 349.1 353.5 316.7 348.8L288.1 344.6L275.9 319.3C269.1 305.3 262.8 293.3 262 292.5C259.6 290.4 254.9 289.8 252 291.2ZM265.4 338.4C270.3 348.6 275.2 357.8 276.4 358.9C278.2 360.6 282.6 361.6 300.3 364.2L322 367.4L306 383.5C294.1 395.5 290 400.3 290 402.1C290 403.4 291.6 413.5 293.5 424.5C295.4 435.4 296.7 444.6 296.5 444.8C296.3 445 287.9 440.8 277.8 435.4C264.7 428.5 258.5 425.7 256 425.7C253.5 425.7 247.3 428.5 234.2 435.4C224.1 440.8 215.7 445 215.4 444.8C215.2 444.5 216.6 435.3 218.5 424.2C220.4 413.1 222 403.1 222 401.9C222 400.3 217 394.6 206 383.5L190 367.4L211.7 364.2C229 361.6 233.8 360.6 235.5 359C236.7 357.9 241.6 348.7 246.5 338.5C251.3 328.3 255.6 320 256 320C256.3 320 260.6 328.3 265.4 338.4Z" fill="#D61031"/>
<path d="M89.7 332.4C88.8 333.1 83.7 342.4 78.5 352.9C73.3 363.4 68.8 372 68.5 372C68.3 372 58.7 373.4 47.3 375.1C28.4 377.8 26.3 378.3 24.3 380.6C22.8 382.2 22 384.4 22 386.8C21.9 390.3 22.9 391.4 37.6 405.6L53.3 420.8L49.6 441.9C46.3 461.2 46.1 463.3 47.4 465.9C49.2 469.2 53.9 471.5 57.1 470.5C58.4 470.1 67.4 465.5 77.1 460.4L94.9 451L113.2 460.7C133.1 471.2 136.2 472.1 140.5 468C143.8 464.9 143.7 463.6 139.8 440.2L136.5 420.9L151.8 405.9C160.1 397.6 167.3 389.7 167.6 388.4C168.4 385.4 166.4 380.3 163.9 379C163 378.4 152.8 376.6 141.3 374.9C129.9 373.2 120.4 371.7 120.3 371.6C120.2 371.6 116.1 363.1 111.2 352.9C105.8 341.5 101.4 333.7 99.9 332.7C97.1 330.7 92.2 330.6 89.7 332.4ZM101.1 372.4C104.4 379.2 108 385.6 109 386.5C110.3 387.7 115.4 388.9 125.5 390.4L140.1 392.5L129.5 402.9C123.7 408.7 118.7 414.3 118.4 415.5C118 417.3 120.4 434 122.5 443.6C122.9 445.5 121.4 444.9 110.7 439.3C104 435.8 97.3 432.6 95.8 432.3C93.8 431.9 90.1 433.5 80.5 438.5C73.6 442.2 67.7 445 67.5 444.8C67.2 444.6 67.9 439.2 69 432.9C72.3 414 72.7 415.4 60.5 403L49.9 392.3L64.5 390.3C74.3 388.9 79.7 387.6 81 386.5C82 385.6 85.4 379.3 88.6 372.4C91.8 365.6 94.6 360 94.8 360C95 360 97.8 365.6 101.1 372.4Z" fill="#D61031"/>
<path d="M412.1 332.6C410.7 333.6 406.2 341.7 400.9 352.8C396 363 391.8 371.5 391.7 371.6C391.6 371.8 382.1 373.3 370.6 375C359.2 376.6 349 378.5 348 379C345.7 380.2 343.6 385.4 344.4 388.2C344.7 389.5 351.8 397.4 360.3 405.8L375.6 421L372.3 439.8C368.3 463.1 368.3 465 371.5 468C375.8 472.1 378.9 471.3 398.9 460.7L417.3 451L435 460.3C444.7 465.5 453.7 469.9 454.9 470.3C458.3 471.2 462.9 469.1 464.6 465.9C466 463.2 465.8 461.3 462.4 441.9L458.8 420.8L474.4 405.6C489.1 391.4 490.1 390.3 490 386.8C490 384.4 489.2 382.2 487.8 380.6C485.7 378.2 483.9 377.8 464.6 375C453.2 373.3 443.6 372 443.3 372C443.1 372 438.6 363.3 433.4 352.7C423.7 332.7 422.4 331 416.7 331C415.4 331 413.4 331.7 412.1 332.6ZM431.3 386.8C432.2 387.6 439.5 389.1 447.5 390.3L462.1 392.3L451.5 403C439.3 415.4 439.7 414.2 443 433C444.2 439.2 444.9 444.5 444.7 444.7C444.4 444.9 438.5 442.1 431.6 438.4C421.8 433.3 418.3 431.9 416.2 432.3C414.7 432.7 408 435.8 401.3 439.3C390.7 444.8 389.1 445.4 389.5 443.6C391.6 433.9 394 417.3 393.6 415.5C393.3 414.3 388.3 408.7 382.5 402.9L371.9 392.5L386.5 390.4C396.6 388.9 401.7 387.7 403 386.5C404 385.6 407.7 379.1 411.1 372.1L417.2 359.5L423.4 372.5C426.9 379.6 430.4 386.1 431.3 386.8Z" fill="#D61031"/>
</svg>
