<svg width="65" height="65" viewBox="0 0 512 512" fill="none" xmlns="http://www.w3.org/2000/svg">
<path d="M245.2 18.1999C242.9 19.4999 235.4 24.3999 228.7 29.0999C222 33.8999 211.1 40.9999 204.5 44.8999C197.9 48.7999 191.7 52.9999 190.8 54.0999C188.4 56.8999 188.5 62.0999 191 64.7999C194.2 68.1999 197.4 68.4999 202.5 65.9999C208.9 62.8999 230.3 49.3999 241.9 41.1999C247.2 37.3999 252.6 33.6999 253.8 33.0999C256.5 31.6999 255.3 30.9999 279.2 47.1999C327.1 79.6999 380.7 102.2 439 114.4C447.8 116.3 455.7 118.3 456.5 119C458.5 120.6 459.6 125.3 461.2 138.5C463 153.3 463 211.7 461.2 226C456.7 261.9 449.2 291.6 437.4 319.9C435 325.6 433 331.3 433 332.6C433 336.4 437.2 340.4 441.3 340.4C446 340.4 447.8 338.7 451.6 330.5C460.6 310.9 469.9 279.3 474.4 253C479 226.4 479.5 219.2 479.5 182.5C479.5 135.8 477.2 116.5 470.8 109C466.3 103.6 462.2 101.9 445.8 98.4999C403.7 89.5999 371.2 78.2999 334 59.4999C315.3 49.9999 294.4 37.3999 279 26.2999C273.2 22.0999 267.1 18.0999 265.3 17.3999C260.1 15.1999 250.1 15.5999 245.2 18.1999Z" fill="#D61031"/>
<path d="M146.1 33.9C145 35 143.7 38.4 143 41.7C136.4 75.4 130.1 87 114.7 94C108.9 96.6 94.9 100.4 81.7 103C74.4 104.5 72 106.7 72 112C72 117.3 74.4 119.5 81.7 121C115.4 127.6 127 133.9 134 149.3C136.6 155.1 140.4 169.1 143 182.3C144.5 189.6 146.7 192 152 192C157.3 192 159.5 189.6 161 182.3C163.6 169.1 167.4 155.1 170 149.3C177 133.9 188.6 127.6 222.3 121C229.6 119.5 232 117.3 232 112C232 106.7 229.6 104.5 222.3 103C209.1 100.4 195.1 96.6 189.3 94C173.9 87 167.6 75.4 161 41.7C159.5 34.4 157.3 32 152 32C149.4 32 147.3 32.7 146.1 33.9ZM155.9 85.3C160.4 94.8 169.2 103.5 178.8 108.1C182.7 110 185.9 111.7 185.9 112C185.9 112.3 182.7 114 178.7 115.9C169.1 120.5 160.5 129.1 155.9 138.7C154 142.7 152.3 145.9 152 145.9C151.7 145.9 150 142.7 148.1 138.8C143.5 129.2 134.8 120.4 125.3 115.9C121.3 114 118.1 112.3 118.1 112C118.1 111.7 121.3 110 125.2 108.1C134.8 103.6 143.6 94.8 148.1 85.2C150 81.3 151.7 78.1 152 78.1C152.3 78.1 154 81.3 155.9 85.3Z" fill="#D61031"/>
<path d="M246.5 73.5002C244.9 74.4002 243.2 75.7002 242.8 76.3002C241.9 77.8002 241.8 83.2002 242.6 85.5002C243.7 88.3002 248.5 90.0002 253.3 89.4002C257.6 88.8002 258.4 89.2002 272.1 97.4002C289.3 107.8 329.1 127.8 334.3 128.7C337.4 129.2 338.3 128.8 341 126.2C344.2 123 344.6 120.8 343 116.5C342.2 114.5 339.9 112.9 332.8 109.8C317.3 102.8 295.3 91.2002 279.5 81.7002C264.5 72.6002 264.5 72.5002 257 72.2002C251.5 72.0002 248.7 72.3002 246.5 73.5002Z" fill="#D61031"/>
<path d="M37.6 122.3C35.6 124.3 35.1 126.5 33.9 136.6C32 152.4 32 213.3 33.8 228C39.9 277.5 52.4 318.4 72.7 355.7C81.5 371.8 84.1 375 88.5 375C93.3 375 94.9 374.2 96.6 370.8C98.6 366.9 98 364.9 92.3 355.3C80.6 335.6 69.5 309.6 62.6 285.9C52.9 252.3 48.9 222 48.9 182C49 161 49.3 153.7 51.6 131.3C52.2 125.6 52.1 125 49.7 122.6C46.3 119.2 40.9 119.1 37.6 122.3Z" fill="#D61031"/>
<path d="M366.5 126.2C363.3 127.9 362 130.1 362 134C362 138.7 364 140.5 372.5 143.6C382.6 147.3 387 146.8 389.6 141.8C391.4 138.4 390.7 134 388.1 131.6C386.4 130 372.1 125 369.6 125C369 125 367.6 125.6 366.5 126.2Z" fill="#D61031"/>
<path d="M413.4 142.2C411.1 143.3 409 147 409 149.9C409 150.8 410.4 153.6 412.2 156L415.4 160.3L415.3 180.9C415.1 212.8 411.4 239.3 402.8 268.5C400.6 276.2 398.3 284.2 397.7 286.2C396.7 289.5 396.9 290.3 398.6 292.7C403 298.6 410.2 298.2 413.2 292C415.6 286.9 421.4 267.4 424.5 253.5C432.8 216.2 435.3 162.3 429.2 150.4C425.2 142.5 419.1 139.4 413.4 142.2Z" fill="#D61031"/>
<path d="M84.1 148.9C80.7 152.3 80 157.7 80 180C80 302.7 137.3 395.1 238.1 435.4C256 442.5 262.1 441.7 289.5 428.5C297.8 424.6 299 423.6 300 420.6C301.4 416.2 299.8 412.3 295.8 410C292.6 408.3 292.4 408.3 272.8 417C257 423.9 256.1 424 244.8 419.6C215.5 408.2 187.6 389.6 164.9 366.4C126.9 327.3 104.3 274.9 98 211C96.8 198.9 96.6 169.3 97.6 159C98.2 152.5 98.1 151.7 96 149.5C93 146.3 86.9 146.1 84.1 148.9Z" fill="#D61031"/>
<path d="M337.1 178.7C333.3 180.8 321.7 192 291.9 222.5C269.9 245 250.8 264.1 249.4 264.8C248 265.5 245.9 265.8 244.7 265.5C243.5 265.1 235.1 257.5 226 248.5C216.9 239.5 207.9 231.4 206 230.4C200.8 227.7 188.8 227.8 183.5 230.7C178.2 233.5 164.8 247.4 162.1 252.7C159.1 258.7 159.2 269.9 162.3 275.8C165.6 282.1 230.3 347.8 235.5 350.1C241.2 352.7 252 352.6 257.6 350C263.5 347.1 377.4 230.9 381.3 223.8C383.5 219.7 384 217.5 384 211.9C384 202.7 382.4 199.3 373.5 189.4C364 179 358.5 176 348.9 176C343.5 176 341.2 176.5 337.1 178.7ZM359.2 199.7C366.3 206.9 368 209.8 367.2 213.7C366.8 215.9 344.6 238.9 276.7 307.7C251.6 333.2 249.6 335 246.3 335C242.3 335 244.7 337.3 202.1 293.9C177.4 268.6 177 268.1 177 264C177 260.2 177.6 259.3 184.3 252.4C195.2 241.2 194.6 241.1 214.9 261.6C225.4 272.3 232.8 278.9 235.4 280.1C241.2 282.7 252 282.7 257.6 279.9C260.6 278.5 274.5 265 303.6 235.4C352.5 185.6 348.1 188.5 359.2 199.7Z" fill="#D61031"/>
<path d="M394.1 321.9C393 323 391.7 326.4 391 329.7C384.4 363.4 378.1 375 362.7 382C356.9 384.6 342.9 388.4 329.7 391C322.4 392.5 320 394.7 320 400C320 405.3 322.4 407.5 329.7 409C363.4 415.6 375 421.9 382 437.3C384.6 443.1 388.4 457.1 391 470.3C392.5 477.6 394.7 480 400 480C405.3 480 407.5 477.6 409 470.3C418 424.6 424.8 417.9 470.3 409C477.6 407.5 480 405.3 480 400C480 394.7 477.6 392.5 470.3 391C457.1 388.4 443.1 384.6 437.3 382C421.9 375 415.6 363.4 409 329.7C407.5 322.4 405.3 320 400 320C397.4 320 395.3 320.7 394.1 321.9ZM403.9 373.3C408.4 382.8 417.2 391.5 426.8 396.1C430.7 398 433.9 399.7 433.9 400C433.9 400.3 430.7 402 426.7 403.9C417.1 408.5 408.5 417.1 403.9 426.7C402 430.7 400.3 433.9 400 433.9C399.7 433.9 398 430.7 396.1 426.8C391.5 417.2 382.8 408.4 373.3 403.9C369.3 402 366.1 400.3 366.1 400C366.1 399.7 369.3 398 373.2 396.1C382.8 391.6 391.6 382.8 396.1 373.2C398 369.3 399.7 366.1 400 366.1C400.3 366.1 402 369.3 403.9 373.3Z" fill="#D61031"/>
<path d="M103.5 388.5C99.7 392.2 100.1 396.7 104.9 402.8C112 411.8 115.4 413.4 120.9 410.5C126.4 407.7 126.5 402.1 121.1 395.2C113.5 385.7 108.3 383.6 103.5 388.5Z" fill="#D61031"/>
<path d="M137.4 419C134.3 420.2 132 423.9 132 427.4C132 431.1 137.3 436.3 152.8 447.9C184.2 471.4 237.1 496 256.2 496C266.1 496 295.6 485.1 319.7 472.5C334.2 465 353.6 452.5 355 449.9C358.1 444.3 353.6 437 347.1 437C346.1 437 341.7 439.3 337.4 442.1C324.4 450.6 309.4 459 296.9 464.6C283.2 470.8 260 479 256 479C252.4 479 238.2 474.4 224.1 468.6C198.4 458.1 176.3 444.9 153.5 426.4C144.1 418.9 141 417.5 137.4 419Z" fill="#D61031"/>
</svg>
