<svg width="35" height="46" viewBox="0 0 35 46" fill="none" xmlns="http://www.w3.org/2000/svg">
<path d="M25.9792 32.1777C24.7488 32.8809 22.9031 32.1777 21.4968 32.5293C20.1785 32.8809 18.948 34.375 17.5417 34.375C16.0476 34.375 14.8171 32.8809 13.4988 32.5293C12.0925 32.1777 10.2468 32.8809 9.01636 32.1777C7.78589 31.4746 7.52222 29.541 6.55542 28.4863C5.50073 27.5195 3.56714 27.168 2.86401 26.0254C2.16089 24.7949 2.86401 22.9492 2.51245 21.543C2.16089 20.2246 0.666748 18.9941 0.666748 17.5C0.666748 16.0938 2.16089 14.8633 2.51245 13.5449C2.86401 12.1387 2.16089 10.293 2.86401 9.0625C3.56714 7.83203 5.50073 7.56836 6.55542 6.60156C7.52222 5.54688 7.87378 3.61328 9.01636 2.91016C10.2468 2.20703 12.0925 2.91016 13.4988 2.55859C14.8171 2.20703 16.0476 0.625 17.5417 0.625C18.948 0.625 20.1785 2.20703 21.4089 2.55859C22.8152 2.91016 24.6609 2.20703 25.8914 2.91016C27.1218 3.61328 27.3855 5.54688 28.4402 6.60156C29.407 7.56836 31.3406 7.83203 32.0437 9.0625C32.7468 10.293 32.0437 12.1387 32.3953 13.5449C32.7468 14.8633 34.3289 16.0938 34.3289 17.5C34.3289 18.9941 32.8347 20.2246 32.4832 21.543C32.1316 22.9492 32.8347 24.7949 32.1316 26.0254C31.4285 27.2559 29.4949 27.5195 28.4402 28.4863C27.4734 29.541 27.1218 31.4746 25.9792 32.1777ZM10.5105 17.5C10.5105 21.4551 13.5867 24.5312 17.5417 24.5312C21.4089 24.5312 24.573 21.4551 24.573 17.5C24.573 13.6328 21.4089 10.4688 17.5417 10.4688C13.5867 10.4688 10.5105 13.6328 10.5105 17.5ZM0.754639 38.7695L3.65503 31.5625C6.81909 34.6387 11.0378 36.748 15.7839 37.1875L12.7957 44.3945C12.532 45.0977 11.8289 45.625 10.95 45.625C10.95 45.625 10.95 45.625 10.8621 45.625C10.071 45.625 9.36792 45.1855 9.01636 44.4824L7.08276 40.791L3.12769 41.582C2.42456 41.7578 1.63354 41.4941 1.1062 40.8789C0.578857 40.2637 0.490967 39.4727 0.754639 38.7695ZM31.3406 31.5625L34.241 38.7695C34.5046 39.4727 34.4167 40.2637 33.8894 40.8789C33.3621 41.4941 32.571 41.7578 31.8679 41.582L27.9128 40.791L25.9792 44.4824C25.6277 45.2734 24.9246 45.625 24.1335 45.625C24.0457 45.625 24.0457 45.625 24.0457 45.7129C23.1667 45.625 22.4636 45.0977 22.1121 44.3945L19.2117 37.1875C23.9578 36.748 28.1765 34.6387 31.3406 31.5625Z" fill="#D61031"/>
</svg>
