<svg width="47" height="46" viewBox="0 0 47 46" fill="none" xmlns="http://www.w3.org/2000/svg">
<path d="M39.6877 10.4688C43.5549 10.4688 46.719 13.6328 46.719 17.5879C46.719 20.4004 44.9612 22.8613 42.5002 24.0039V30.8594C42.5002 39.0332 35.5569 45.625 27.0315 45.625C18.594 45.625 11.7385 39.2969 11.5627 31.2988C5.14673 29.9805 0.312744 24.3555 0.312744 17.5V3.87695C0.312744 2.91016 1.01587 2.03125 1.98267 1.76758L7.51978 0.712891C8.66235 0.449219 9.71704 1.24023 9.98071 2.38281L10.2444 3.78906C10.5081 4.93164 9.71704 5.98633 8.57446 6.25L5.84985 6.77734V17.5C5.84985 22.2461 9.71704 26.0254 14.3752 25.9375C19.0334 25.9375 22.7249 22.0703 22.7249 17.4121V6.77734L20.0881 6.25C18.9456 5.98633 18.1545 4.84375 18.4182 3.70117L18.6819 2.38281C18.9456 1.24023 20.0002 0.449219 21.1428 0.712891L26.6799 1.85547C27.6467 2.03125 28.4377 2.91016 28.4377 3.87695V17.5C28.4377 24.3555 23.5159 29.9805 17.1877 31.2988C17.3635 36.1328 21.7581 40.0879 27.0315 40.0879C32.3928 40.0879 36.8752 35.957 36.8752 30.9473V24.0039C34.3264 22.8613 32.6565 20.4004 32.6565 17.5C32.6565 13.6328 35.7327 10.4688 39.6877 10.4688ZM39.6877 19.6094C40.8303 19.6094 41.7971 18.7305 41.7971 17.5C41.7971 16.3574 40.8303 15.3906 39.6877 15.3906C38.4573 15.3906 37.5784 16.3574 37.5784 17.5C37.5784 18.7305 38.4573 19.6094 39.6877 19.6094Z" fill="#D61031"/>
</svg>
