<svg width="40" height="46" viewBox="0 0 40 46" fill="none" xmlns="http://www.w3.org/2000/svg">
<path d="M20.021 27.3438C13.7808 27.3438 8.771 22.334 8.771 16.0938V6.42578C8.771 5.2832 9.47412 4.22852 10.5288 3.78906L17.9995 1.06445C18.6147 0.800781 19.3179 0.625 20.021 0.625C20.6362 0.625 21.3394 0.800781 21.9546 1.06445L29.4253 3.78906C30.48 4.22852 31.271 5.2832 31.271 6.42578V16.0938C31.271 22.334 26.1733 27.3438 20.021 27.3438ZM16.5054 6.95312V8.44727C16.5054 8.71094 16.6812 8.88672 16.9448 8.88672H18.7905V10.7324C18.7905 10.9961 18.9663 11.1719 19.23 11.1719H20.7241C20.9878 11.1719 21.1636 10.9961 21.1636 10.7324V8.88672H23.0972C23.2729 8.88672 23.5366 8.71094 23.5366 8.44727V6.95312C23.5366 6.68945 23.2729 6.51367 23.0972 6.51367H21.1636V4.58008C21.1636 4.4043 20.9878 4.14062 20.7241 4.14062H19.23C18.9663 4.14062 18.7905 4.4043 18.7905 4.58008V6.51367H16.9448C16.6812 6.51367 16.5054 6.68945 16.5054 6.95312ZM12.9897 14.6875V16.0938C12.9897 20.0488 16.0659 23.125 20.021 23.125C23.8882 23.125 27.0522 20.0488 27.0522 16.0938V14.6875H12.9897ZM29.0737 28.1348C35.2261 30.1562 39.6206 35.8691 39.6206 42.6367C39.6206 44.3066 38.3022 45.625 36.6323 45.625H3.32178C1.65186 45.625 0.333496 44.3066 0.333496 42.6367C0.333496 35.8691 4.72803 30.1562 10.8804 28.1348L20.021 37.1875L29.0737 28.1348Z" fill="#D61031"/>
</svg>
